<?xml version="1.0" standalone="no"?>
<!DOCTYPE svg PUBLIC "-//W3C//DTD SVG 20010904//EN"
 "http://www.w3.org/TR/2001/REC-SVG-20010904/DTD/svg10.dtd">
<svg version="1.0" xmlns="http://www.w3.org/2000/svg"
 width="942.000000pt" height="942.000000pt" viewBox="0 0 942.000000 942.000000"
 preserveAspectRatio="xMidYMid meet">
<metadata>
Created by potrace 1.14, written by Peter Selinger 2001-2017
</metadata>
<g transform="translate(0.000000,942.000000) scale(0.100000,-0.100000)"
fill="#000000" stroke="none">
<path d="M8190 8401 c-124 -42 -342 -117 -485 -165 -143 -49 -276 -99 -296
-111 -43 -28 -58 -56 -137 -265 -33 -85 -97 -252 -142 -370 -46 -118 -104
-271 -130 -340 -86 -226 -72 -210 -183 -210 -40 0 -144 -4 -232 -9 -88 -6
-214 -13 -280 -16 -334 -16 -849 -41 -1105 -55 -102 -6 -279 -15 -395 -21
-278 -13 -536 -26 -780 -39 -110 -5 -288 -14 -395 -20 -107 -5 -283 -14 -390
-20 -107 -5 -249 -12 -315 -15 -66 -3 -201 -10 -300 -15 -165 -9 -397 -21
-665 -35 -223 -11 -511 -25 -635 -30 -71 -3 -144 -8 -162 -11 -45 -7 -89 -47
-97 -87 -4 -22 12 -144 44 -333 28 -164 77 -456 110 -649 32 -192 82 -485 110
-650 49 -284 57 -334 79 -472 46 -288 87 -501 100 -520 9 -12 25 -26 37 -31
24 -11 159 -26 439 -47 700 -54 852 -65 955 -74 63 -6 178 -15 255 -21 77 -6
192 -15 255 -20 101 -9 512 -41 895 -71 296 -23 603 -47 760 -60 66 -5 179
-14 250 -19 72 -6 178 -14 237 -18 60 -5 111 -12 115 -16 5 -4 51 -47 103 -94
52 -48 173 -159 270 -248 96 -88 227 -207 290 -264 268 -242 290 -271 290
-373 0 -113 -84 -215 -193 -236 -31 -6 -484 -12 -1107 -15 -580 -4 -1251 -8
-1490 -11 -239 -3 -840 -7 -1334 -10 -981 -7 -924 -3 -989 -64 -16 -14 -36
-39 -44 -56 -22 -42 -20 -133 5 -181 24 -47 43 -65 99 -93 37 -18 60 -21 178
-21 l137 0 -40 -45 c-183 -208 -175 -522 21 -715 215 -213 543 -206 752 16 95
100 135 206 135 355 0 138 -43 248 -139 354 l-36 40 360 6 c198 4 932 9 1630
13 699 3 1311 9 1361 12 51 4 113 3 139 -1 l48 -7 -37 -30 c-50 -41 -119 -142
-146 -213 -28 -74 -37 -208 -21 -288 58 -278 338 -459 620 -401 189 39 348
188 396 373 36 138 8 307 -69 423 -44 68 -119 139 -175 167 -22 12 -41 23 -41
26 0 3 22 16 48 29 210 106 354 364 339 606 -12 204 -83 329 -297 525 -79 72
-157 144 -174 160 -17 17 -103 95 -191 175 -290 262 -287 258 -266 298 10 18
56 136 201 517 50 132 105 274 120 315 16 41 57 147 91 235 33 88 71 187 84
220 13 33 44 114 70 180 70 183 124 322 155 405 16 41 56 147 90 235 34 88 84
216 110 285 27 69 71 184 98 255 28 72 74 191 102 265 63 166 156 408 182 475
11 28 23 61 28 75 5 14 20 54 35 90 14 36 41 106 59 155 19 50 41 106 49 125
9 19 28 68 42 107 15 40 31 75 36 79 11 7 640 222 684 234 62 17 163 57 196
78 73 44 104 171 63 257 -31 67 -113 116 -189 114 -16 0 -131 -35 -255 -78z
m-1370 -1711 c0 -10 -15 -50 -114 -302 -25 -64 -46 -120 -46 -124 0 -3 -6 -20
-14 -37 -18 -39 -82 -206 -103 -267 -8 -25 -18 -48 -21 -51 -4 -4 -170 -10
-369 -14 -339 -7 -363 -6 -363 10 0 23 209 738 218 747 4 4 95 12 202 18 107
6 254 15 325 19 193 12 285 12 285 1z m-1077 -73 c-5 -8 -74 -242 -125 -422
-10 -38 -23 -83 -28 -100 -37 -131 -60 -199 -72 -206 -7 -5 -130 -9 -273 -10
-143 0 -324 -3 -402 -5 -78 -3 -144 -1 -147 4 -2 4 -1 26 4 48 5 21 30 149 56
284 25 135 54 276 63 315 l16 70 50 7 c53 6 420 26 690 37 152 6 183 2 168
-22z m-1169 -36 c3 -5 -3 -53 -13 -107 -73 -388 -113 -599 -115 -602 -11 -11
-815 -20 -834 -8 -6 3 -8 23 -6 44 3 36 12 138 34 427 18 222 10 202 83 209
34 3 168 11 297 17 230 11 484 24 527 27 12 1 24 -2 27 -7z m-1167 -148 c-3
-54 -11 -156 -17 -228 -6 -71 -14 -178 -19 -237 -4 -60 -11 -111 -14 -115 -4
-4 -195 -7 -425 -7 l-417 -1 -11 230 c-15 286 -16 376 -6 393 11 16 38 19 332
33 135 6 306 15 380 19 74 4 150 7 169 8 l34 2 -6 -97z m-1153 -100 c11 -239
19 -503 15 -503 -2 0 -191 -3 -420 -7 -317 -5 -418 -3 -423 6 -4 6 -11 37 -16
69 -5 31 -22 136 -39 232 -16 96 -32 194 -35 218 -3 23 -8 47 -11 52 -12 20
45 28 305 40 146 7 319 16 385 19 66 4 145 8 176 9 l56 2 7 -137z m4166 -682
c0 -6 -11 -39 -24 -73 -13 -35 -47 -121 -74 -193 -28 -71 -69 -177 -91 -235
-22 -58 -55 -145 -75 -195 l-34 -90 -313 2 c-171 2 -314 4 -316 7 -6 6 18 99
87 331 34 116 74 253 90 306 44 152 22 138 223 141 94 2 252 4 350 6 119 2
177 0 177 -7z m-974 -38 c-4 -15 -11 -44 -15 -63 -28 -116 -194 -656 -204
-663 -10 -7 -469 0 -612 9 -22 1 -55 3 -74 3 -40 1 -41 -18 14 261 20 102 47
245 60 319 13 74 27 137 31 140 9 9 198 16 518 19 l288 3 -6 -28z m-1059 -37
c-2 -22 -16 -102 -30 -176 -15 -74 -36 -184 -48 -245 -35 -185 -47 -238 -58
-245 -11 -6 -87 -5 -506 8 l-210 7 1 75 c1 112 42 601 51 610 2 3 161 6 351 8
191 1 361 3 377 5 17 1 41 0 53 -2 21 -3 23 -8 19 -45z m-1055 -46 c-2 -41 -7
-115 -12 -165 -5 -49 -14 -155 -20 -235 -6 -80 -13 -158 -16 -173 l-6 -28
-311 6 c-441 9 -410 5 -419 46 -4 19 -10 133 -13 254 -4 121 -8 250 -10 287
-2 49 0 68 10 72 8 3 152 5 321 6 169 0 309 2 311 4 2 1 40 2 85 2 l83 -1 -3
-75z m-1048 3 c3 -32 8 -176 12 -321 l6 -262 -53 4 c-30 3 -182 8 -339 11
-279 6 -337 8 -344 16 -3 3 -31 162 -56 319 -4 25 -13 81 -21 125 -7 44 -13
96 -13 115 l-1 35 195 5 c107 3 288 6 401 8 l207 3 6 -58z m-16 -819 c34 -4
42 -9 43 -27 1 -12 3 -33 5 -47 2 -14 6 -146 10 -293 l7 -268 -99 6 c-54 3
-110 8 -124 10 -14 2 -70 7 -125 11 -55 3 -103 8 -107 10 -3 2 -38 5 -77 5
-51 1 -74 5 -84 18 -7 9 -26 93 -41 186 -15 94 -31 190 -36 215 -5 25 -12 65
-15 90 -3 25 -8 57 -11 73 l-6 27 309 -5 c169 -3 327 -8 351 -11z m800 -20
l194 -6 -6 -92 c-4 -50 -11 -136 -16 -191 -5 -55 -14 -162 -21 -237 -6 -75
-15 -141 -19 -147 -4 -8 -39 -9 -121 -2 -63 6 -154 13 -204 16 -187 12 -285
26 -294 44 -5 9 -9 87 -10 173 -1 87 -4 167 -6 179 -6 32 -8 256 -2 266 5 8
186 7 505 -3z m1077 -30 c33 -3 61 -7 63 -9 3 -3 -27 -165 -83 -455 -20 -102
-39 -199 -42 -217 -7 -38 -23 -42 -124 -32 -41 4 -153 12 -249 19 -272 17
-260 14 -260 57 0 20 4 75 10 122 5 47 14 154 20 236 14 184 19 243 26 274 l5
24 287 -7 c158 -4 314 -9 347 -12z m770 -19 c132 -4 241 -8 243 -10 2 -2 -15
-65 -37 -142 -145 -505 -174 -599 -182 -607 -10 -11 -59 -10 -234 4 -272 23
-376 34 -380 41 -5 7 12 101 75 419 15 80 34 177 40 215 7 39 14 75 16 82 2 9
32 11 111 8 59 -2 216 -7 348 -10z m1098 -35 c4 -4 -3 -36 -17 -71 -13 -35
-62 -161 -107 -279 -45 -118 -91 -237 -101 -265 -11 -27 -29 -75 -40 -105 -25
-67 -41 -81 -87 -75 -20 2 -101 9 -181 15 -80 6 -163 13 -185 15 -22 2 -52 4
-66 4 -35 1 -41 20 -24 73 7 24 25 84 40 133 14 50 30 101 34 115 5 14 14 43
20 65 6 22 23 81 37 130 14 50 30 104 34 120 11 40 25 84 39 119 l11 28 293
-7 c160 -4 296 -10 300 -15z m-3623 -2854 c111 -57 182 -200 150 -303 -32
-103 -68 -146 -157 -190 -128 -62 -274 -14 -351 117 -23 39 -27 56 -27 125 0
64 5 90 24 128 24 50 98 114 156 136 43 15 163 8 205 -13z m4186 -3 c101 -49
153 -133 154 -246 0 -155 -116 -270 -273 -269 -87 1 -141 26 -199 93 -53 61
-66 96 -67 177 -2 122 71 219 199 265 8 3 41 6 73 6 44 1 72 -6 113 -26z"/>
<path d="M2207 1672 c-111 -46 -149 -183 -75 -277 30 -38 90 -65 147 -65 40 0
57 6 93 33 61 46 80 88 75 159 -5 63 -29 102 -82 134 -40 25 -118 33 -158 16z"/>
<path d="M6360 1655 c-55 -41 -75 -81 -75 -151 0 -54 4 -67 30 -100 80 -98
209 -99 288 -2 63 78 40 202 -47 253 -60 35 -148 35 -196 0z"/>
</g>
</svg>
